<?xml version="1.0" encoding="UTF-8" standalone="no"?>
<svg
   width="82"
   height="60"
   viewBox="0 0 82 60"
   version="1.1"
   id="svg170"
   sodipodi:docname="syndicom_call_to_action.svg"
   inkscape:version="1.2 (1:1.2+202206011327+fc4e4096c5)"
   xmlns:inkscape="http://www.inkscape.org/namespaces/inkscape"
   xmlns:sodipodi="http://sodipodi.sourceforge.net/DTD/sodipodi-0.dtd"
   xmlns:xlink="http://www.w3.org/1999/xlink"
   xmlns="http://www.w3.org/2000/svg"
   xmlns:svg="http://www.w3.org/2000/svg">
  <sodipodi:namedview
     id="namedview172"
     pagecolor="#ffffff"
     bordercolor="#999999"
     borderopacity="1"
     inkscape:showpageshadow="0"
     inkscape:pageopacity="0"
     inkscape:pagecheckerboard="0"
     inkscape:deskcolor="#d1d1d1"
     showgrid="false"
     inkscape:zoom="14.583333"
     inkscape:cx="27.84"
     inkscape:cy="30.068571"
     inkscape:window-width="2560"
     inkscape:window-height="1016"
     inkscape:window-x="1920"
     inkscape:window-y="27"
     inkscape:window-maximized="1"
     inkscape:current-layer="svg170" />
  <defs
     id="defs131">
    <linearGradient
       id="linearGradient-1"
       x1="0%"
       x2="100%"
       y1="44.17%"
       y2="55.83%">
      <stop
         offset="0%"
         stop-color="#00A09D"
         id="stop104" />
      <stop
         offset="100%"
         stop-color="#00E2FF"
         id="stop106" />
    </linearGradient>
    <rect
       id="path-2"
       width="22"
       height="2"
       x="0"
       y="0" />
    <filter
       id="filter-3"
       width="1"
       height="1.5"
       x="0"
       y="0"
       filterUnits="objectBoundingBox">
      <feOffset
         dy="1"
         in="SourceAlpha"
         result="shadowOffsetOuter1"
         id="feOffset110" />
      <feComposite
         in="shadowOffsetOuter1"
         in2="SourceAlpha"
         operator="out"
         result="shadowOffsetOuter1"
         id="feComposite112" />
      <feColorMatrix
         in="shadowOffsetOuter1"
         values="0 0 0 0 1   0 0 0 0 1   0 0 0 0 1  0 0 0 0.4 0"
         id="feColorMatrix114" />
    </filter>
    <path
       id="path-4"
       d="M16 8v1H0V8h16zm4-3v1H0V5h20z" />
    <filter
       id="filter-5"
       width="1"
       height="1.25"
       x="0"
       y="0"
       filterUnits="objectBoundingBox">
      <feOffset
         dy="1"
         in="SourceAlpha"
         result="shadowOffsetOuter1"
         id="feOffset118" />
      <feComposite
         in="shadowOffsetOuter1"
         in2="SourceAlpha"
         operator="out"
         result="shadowOffsetOuter1"
         id="feComposite120" />
      <feColorMatrix
         in="shadowOffsetOuter1"
         values="0 0 0 0 1   0 0 0 0 1   0 0 0 0 1  0 0 0 0.2 0"
         id="feColorMatrix122" />
    </filter>
    <path
       id="path-6"
       d="M53.22 11.566c.15.145.183.312.1.501-.081.193-.224.29-.427.29h-2.771l1.458 3.453a.47.47 0 0 1-.247.61l-1.284.544a.47.47 0 0 1-.61-.247l-1.385-3.279-2.263 2.263a.446.446 0 0 1-.5.102c-.194-.082-.291-.225-.291-.428V4.465c0-.204.097-.347.29-.429a.45.45 0 0 1 .5.102l7.43 7.428z" />
    <filter
       id="filter-8"
       width="1"
       height="1.0769275"
       x="0"
       y="0"
       filterUnits="objectBoundingBox">
      <feOffset
         dy="1"
         in="SourceAlpha"
         result="shadowOffsetOuter1"
         id="feOffset126" />
      <feColorMatrix
         in="shadowOffsetOuter1"
         values="0 0 0 0 0   0 0 0 0 0   0 0 0 0 0  0 0 0 1 0"
         id="feColorMatrix128" />
    </filter>
  </defs>
  <g
     fill="none"
     fill-rule="evenodd"
     class="snippets_thumbs"
     id="g168">
    <g
       class="s_call_to_action"
       id="g166">
      <rect
         width="82"
         height="60"
         class="bg"
         id="rect133" />
      <g
         fill="url(#linearGradient-1)"
         class="group"
         opacity=".4"
         transform="translate(0 16)"
         id="g139">
        <g
           class="image_1"
           id="g137">
          <rect
             width="82"
             height="28"
             class="rectangle"
             id="rect135" />
        </g>
      </g>
      <g
         class="center_group"
         transform="translate(15 25)"
         id="g164">
        <g
           class="rectangle"
           id="g145">
          <use
             fill="#000"
             filter="url(#filter-3)"
             xlink:href="#path-2"
             id="use141" />
          <use
             fill="#FFF"
             fill-opacity=".95"
             xlink:href="#path-2"
             id="use143" />
        </g>
        <g
           class="combined_shape"
           id="g151">
          <use
             fill="#000"
             filter="url(#filter-5)"
             xlink:href="#path-4"
             id="use147" />
          <use
             fill="#FFF"
             fill-opacity=".8"
             xlink:href="#path-4"
             id="use149" />
        </g>
        <rect
           width="16"
           height="7"
           x="36.5"
           y=".5"
           fill="#1C1C1C"
           stroke="#FFF"
           class="rectangle"
           opacity=".703"
           id="rect153" />
        <mask
           id="mask-7"
           fill="#fff">
          <use
             xlink:href="#path-6"
             id="use155" />
        </mask>
        <g
           fill-rule="nonzero"
           class="mouse_pointer"
           id="g162">
          <use
             fill="#000"
             filter="url(#filter-8)"
             xlink:href="#path-6"
             id="use158" />
          <use
             fill="#FFF"
             xlink:href="#path-6"
             id="use160" />
        </g>
      </g>
    </g>
  </g>
  <path
     style="fill:#edea17;stroke-width:0.0685714;fill-opacity:1"
     d="m 15.051429,25.988571 v -0.96 h 10.971428 10.971429 v 0.96 0.96 H 26.022857 15.051429 Z"
     id="path520" />
  <path
     style="fill:#edea17;fill-opacity:1;stroke-width:0.0685714"
     d="m 15.051429,30.514286 v -0.48 h 9.942857 9.942857 v 0.48 0.48 h -9.942857 -9.942857 z"
     id="path1995" />
  <path
     style="fill:#edea17;fill-opacity:1;stroke-width:0.0685714"
     d="m 64.187901,32.52 -0.474956,-0.497143 h 1.657813 1.657813 v -3.017143 -3.017143 h -7.542857 -7.542857 v 3.017143 3.017143 h 4.011429 4.011428 v 0.48 0.48 H 55.508571 51.051429 V 29.005714 25.028571 H 59.52 67.988571 v 3.974809 3.974809 l -1.662857,0.01948 -1.662857,0.01948 z"
     id="path1997" />
  <path
     style="fill:#edea17;fill-opacity:1;stroke-width:0.0685714"
     d="m 64.5765,41.799688 c -0.07183,-0.09132 -0.432869,-0.885886 -0.802313,-1.765715 -0.369445,-0.879828 -0.683928,-1.613271 -0.698852,-1.629872 -0.01492,-0.0166 -0.576068,0.515683 -1.246987,1.182857 -1.275951,1.268827 -1.389961,1.342858 -1.656919,1.075899 -0.134911,-0.134911 -0.137143,-0.228571 -0.137143,-5.755023 v -5.61788 l 0.182203,-0.143321 c 0.116963,-0.092 0.233589,-0.128262 0.325714,-0.101263 0.200097,0.05864 7.715601,7.570572 7.764536,7.760844 0.02308,0.08975 -0.0073,0.226607 -0.07219,0.325714 l -0.111997,0.170929 h -1.50699 c -0.828845,0 -1.506991,0.0266 -1.506991,0.05911 0,0.03251 0.324,0.822896 0.72,1.756415 0.396,0.933518 0.72,1.781566 0.72,1.884551 0,0.102984 -0.054,0.233414 -0.12,0.289846 -0.150074,0.128315 -1.450713,0.673261 -1.606451,0.673075 -0.06326,-6.8e-5 -0.173792,-0.07485 -0.24562,-0.166163 z"
     id="path1999" />
  <path
     style="fill:#edea17;fill-opacity:1;stroke-width:0.0685714"
     d="M 15.051429,33.497143 V 33.051429 H 23.005714 30.96 v 0.445714 0.445714 h -7.954286 -7.954285 z"
     id="path2001" />
  <path
     style="fill:#49a9d6;fill-opacity:1;stroke-width:0.0685714"
     d="m 0.37714286,43.918536 c 0,-0.01966 1.83965164,-5.458234 4.08811474,-12.085714 C 6.7137207,25.205341 8.8348018,18.942 9.1787712,17.914286 l 0.6253989,-1.868572 h 7.5950579 c 4.177281,0 7.595058,0.02226 7.595058,0.04947 0,0.02721 -0.671143,2.032465 -1.491429,4.456132 l -1.491428,4.406667 -3.514286,0.001 -3.514286,0.001 v 1.542857 1.542857 h 2.990194 c 2.362746,0 2.983778,0.01799 2.959619,0.08572 -0.01682,0.04714 -0.163549,0.479142 -0.326075,0.96 l -0.295503,0.874285 h -2.664117 -2.664118 v 1.017633 1.017634 l 1.553939,0.04522 c 0.854666,0.02487 1.891682,0.04522 2.304479,0.04522 0.57159,0 0.742998,0.02044 0.718907,0.08571 -0.0174,0.04714 -0.08489,0.247714 -0.149991,0.445714 l -0.118355,0.36 h -2.15449 -2.154489 V 34.011429 35.04 h 1.782857 c 0.980572,0 1.783299,0.02314 1.783839,0.05143 5.49e-4,0.02829 -0.670602,2.03373 -1.491428,4.456544 l -1.492411,4.405116 -7.5942854,6.17e-4 c -4.1768572,3.1e-4 -7.59428574,-0.01551 -7.59428574,-0.03517 z"
     id="path2798" />
  <path
     style="fill:#49a9d6;fill-opacity:1;stroke-width:0.0685714"
     d="M 32.4704,43.937143 C 32.471406,43.927714 34.597288,37.656 37.194583,30 l 4.722353,-13.92 7.172961,-0.01746 c 3.945128,-0.0096 7.172988,0.0058 7.173021,0.03429 3.4e-5,0.02846 -0.671109,2.033894 -1.491428,4.45652 l -1.49149,4.404776 -1.148571,9.39e-4 -1.148572,9.38e-4 4.8e-4,3.377143 4.8e-4,3.377143 -2.074735,6.11959 -2.074735,6.11959 -7.182857,4.11e-4 c -3.950633,2.24e-4 -7.182096,-0.0073 -7.18109,-0.01673 z"
     id="path2800" />
  <path
     style="fill:#49a9d6;fill-opacity:1;stroke-width:0.0685714"
     d="m 17.098493,39.501046 1.484364,-4.453239 6.222857,-0.0039 6.222857,-0.0039 v -1.028571 -1.028572 h -5.836568 c -5.52613,0 -5.834726,-0.0064 -5.801903,-0.12 0.01907,-0.066 0.07446,-0.263246 0.1231,-0.438325 l 0.08843,-0.318326 1.720081,-0.04961 c 2.087618,-0.06021 12.488886,-0.01742 12.557975,0.05167 0.03933,0.03933 -2.93113,8.951097 -3.759933,11.280309 l -0.201299,0.565715 H 22.76629 15.614124 Z"
     id="path2802" />
  <path
     style="fill:#49a9d6;fill-opacity:1;stroke-width:0.0685714"
     d="M 0.03428571,30 V 16.045714 H 4.9101935 c 4.6162259,0 4.8733606,0.0064 4.8280849,0.12 -0.026302,0.066 -0.7828793,2.295429 -1.681283,4.954286 C 7.1585925,23.778857 5.7392259,27.975429 4.9028475,30.445714 4.0664692,32.916 2.6983166,36.965683 1.8625084,39.445009 0.45479756,43.620818 0.33149216,43.952928 0.18857143,43.953581 l -0.15428572,7.05e-4 z"
     id="path2804" />
  <path
     style="fill:#49a9d6;fill-opacity:1;stroke-width:0.0685714"
     d="M 3.7885714,43.902872 C 1.95,43.892718 0.44571429,43.870251 0.44571429,43.852946 c 0,-0.01731 2.04793731,-6.088155 4.55097181,-13.490776 C 7.4997209,22.959548 9.6083794,16.717714 9.6825943,16.491429 L 9.8175305,16.08 17.354445,16.10282 c 4.145302,0.01255 7.548864,0.03477 7.56347,0.04938 0.02362,0.02362 -2.241751,6.807283 -2.752402,8.242086 L 21.964173,24.96 h -3.490658 -3.490658 v 1.531692 1.531691 l 2.925447,0.04518 c 1.608997,0.02485 2.935435,0.05517 2.947643,0.06738 0.01221,0.01221 -0.111244,0.421185 -0.274338,0.908839 l -0.296535,0.886643 -2.651108,0.01795 -2.651109,0.01795 v 1.027766 c 0,0.773842 0.02118,1.028997 0.08571,1.032747 0.04714,0.0027 1.049023,0.02748 2.226399,0.05497 1.177377,0.02749 2.156993,0.0663 2.176926,0.08623 0.01993,0.01993 -0.0206,0.203483 -0.09006,0.407888 l -0.126302,0.371645 -2.136337,0.01812 -2.136338,0.01812 v 1.017438 1.017438 l 1.730922,0.04965 c 0.952007,0.02731 1.743166,0.06189 1.75813,0.07686 0.02348,0.02348 -2.454812,7.450756 -2.818909,8.448091 l -0.131425,0.36 -4.195073,-0.01647 c -2.3072903,-0.0091 -5.6993591,-0.02478 -7.5379306,-0.03494 z"
     id="path2806" />
  <path
     style="fill:#49a9d6;fill-opacity:1;stroke-width:0.0685714"
     d="m 30,43.901396 c 0,-0.02909 0.509785,-1.548804 1.132855,-3.377143 0.985559,-2.892029 2.775716,-8.305072 2.775716,-8.393158 0,-0.01681 -0.08486,-0.04341 -0.188571,-0.05912 -0.103714,-0.01571 0.143143,-0.03319 0.548571,-0.03884 l 0.737143,-0.01027 V 30.994286 29.965714 H 29.763839 24.521963 L 24.853407,29.022857 25.18485,28.08 l 5.921861,-0.03429 5.92186,-0.03429 0.01846,-1.525715 0.01845,-1.525714 h -5.415597 -5.415597 l 1.272698,-3.754286 c 0.699984,-2.064857 1.380289,-4.070571 1.511788,-4.457143 l 0.23909,-0.702857 h 6.310495 c 5.976555,0 6.308789,0.0064 6.278273,0.12 -0.01772,0.066 -1.613162,4.779429 -3.545424,10.474286 -1.932262,5.694857 -4.04279,11.920111 -4.690062,13.833898 l -1.176859,3.479611 -1.217143,4.12e-4 C 30.547714,43.954111 30,43.930485 30,43.901396 Z"
     id="path2808" />
  <path
     style="fill:#49a9d6;fill-opacity:1;stroke-width:0.0685714"
     d="m 20.662468,29.00684 0.320389,-0.958875 2.074286,-0.0011 c 1.140857,-6.19e-4 2.074286,0.02011 2.074286,0.04606 0,0.02595 -0.144853,0.457953 -0.321895,0.96 l -0.321895,0.912812 h -2.07278 -2.072779 z"
     id="path2810" />
  <path
     style="fill:#49a9d6;fill-opacity:1;stroke-width:0.0685714"
     d="m 23.541042,20.506626 1.487529,-4.453374 2.074286,-0.0038 c 1.140857,-0.0021 2.075072,0.01937 2.076034,0.04766 9.6e-4,0.02829 -0.668773,2.034 -1.488298,4.457143 L 26.200548,24.96 H 24.12703 22.053512 Z"
     id="path2812" />
  <path
     style="fill:#49a9d6;fill-opacity:1;stroke-width:0.0685714"
     d="m 47.449928,42.257143 c 0.4573,-1.355018 1.966006,-5.805336 3.315412,-9.779661 l 0.183231,-0.53966 0.01992,0.556803 0.01992,0.556804 h 4.488655 4.488655 v 4.277318 c 0,3.718406 0.01344,4.288472 0.102857,4.362682 0.05657,0.04695 0.102858,0.12559 0.102858,0.174755 0,0.04917 -0.157654,0.539101 -0.350341,1.088747 l -0.350341,0.999355 h -6.296791 -6.29679 z"
     id="path2814" />
  <path
     style="fill:#49a9d6;fill-opacity:1;stroke-width:0.0685714"
     d="M 68.000686,43.853461 C 68.01288,43.798007 70.136571,37.518979 72.72,29.900066 l 4.697143,-13.85257 2.28,-8.91e-4 2.28,-8.91e-4 V 30 43.954286 h -6.999314 c -6.123249,0 -6.996538,-0.01262 -6.977143,-0.100825 z"
     id="path2816" />
  <path
     style="fill:#49a9d6;fill-opacity:1;stroke-width:0.0685714"
     d="m 59.554855,43.902857 c 3.13e-4,-0.02829 0.147775,-0.498857 0.327695,-1.045714 l 0.327126,-0.994286 0.228625,0.02207 c 0.213976,0.02065 0.304904,-0.05376 1.419045,-1.16133 l 1.190419,-1.183396 0.112102,0.269902 c 1.254517,3.020424 1.374856,3.252758 1.684787,3.252758 0.23409,0 1.639859,-0.634591 1.714429,-0.773926 0.03906,-0.07298 0.05186,-0.26042 0.02846,-0.416527 -0.05407,-0.360625 -0.05455,-0.500736 -0.0027,-0.798118 0.0346,-0.198451 -0.04602,-0.447748 -0.465669,-1.44 l -0.507508,-1.2 L 66.897457,38.4 c 0.707186,-0.01886 1.299525,-0.04971 1.316308,-0.06857 0.216697,-0.243473 0.23455,-0.591162 0.04094,-0.797254 l -0.145299,-0.154663 0.145299,-0.184718 C 68.334616,37.093199 68.4,36.944591 68.4,36.864553 c 0,-0.09897 -0.581499,-0.726672 -1.817751,-1.962181 l -1.817751,-1.816658 1.629179,-0.03429 1.62918,-0.03429 0.01769,-4.028572 0.01769,-4.028571 h -1.886262 c -1.037445,0 -1.885313,-0.02314 -1.884152,-0.05143 0.0012,-0.02828 0.672305,-2.026285 1.491429,-4.44 L 67.268571,16.08 l 5.06465,-0.01759 c 4.807,-0.01669 5.06222,-0.01146 5.016888,0.102857 -0.04224,0.106506 -4.679697,13.783438 -8.125518,23.964004 -0.685728,2.025957 -1.227107,3.715386 -1.203066,3.754286 0.02985,0.0483 -1.305811,0.07073 -4.211764,0.07073 -2.340511,0 -4.255219,-0.02314 -4.254906,-0.05143 z"
     id="path2818" />
  <path
     style="fill:#49a9d6;fill-opacity:1;stroke-width:0.0685714"
     d="m 53.383919,24.942857 c 5.84e-4,-0.0094 0.676279,-2.007428 1.501545,-4.44 L 56.385947,16.08 61.810116,16.06244 c 2.983294,-0.0097 5.42417,-0.0079 5.42417,0.0039 0,0.0118 -0.663429,1.975227 -1.474286,4.363161 -0.810857,2.387934 -1.474286,4.384176 -1.474286,4.436093 0,0.07935 -0.868641,0.0944 -5.451428,0.0944 -2.998286,0 -5.450951,-0.0077 -5.450367,-0.01714 z"
     id="path2820" />
  <path
     style="fill:#49a9d6;fill-opacity:1;stroke-width:0.0685714"
     d="m 21.034104,27.822857 c 0.0174,-0.04714 0.08489,-0.247714 0.14999,-0.445714 l 0.118356,-0.36 h 7.845918 7.845918 v 0.445714 0.445714 h -7.995908 c -6.367884,0 -7.989467,-0.01745 -7.964274,-0.08571 z"
     id="path2822" />
  <path
     style="fill:#49a9d6;fill-opacity:1;stroke-width:0.0685714"
     d="m 15.051429,27.462857 v -0.445714 h 3.085714 c 1.715597,0 3.085714,0.02662 3.085714,0.05995 0,0.03297 -0.04715,0.193599 -0.104787,0.356947 -0.05763,0.163349 -0.08946,0.336942 -0.07072,0.385764 0.02756,0.07181 -0.541806,0.08877 -2.980928,0.08877 h -3.01499 z"
     id="path2824" />
  <path
     style="fill:#49a9d6;fill-opacity:1;stroke-width:0.0685714"
     d="m 15.051429,31.472984 v -0.481303 l 6.782873,0.01844 c 3.730582,0.01015 6.800653,0.03623 6.822382,0.05797 0.02173,0.02174 -0.02483,0.230024 -0.103455,0.462857 l -0.142962,0.423334 h -6.679419 -6.679419 z"
     id="path2826" />
  <path
     style="fill:#49a9d6;fill-opacity:1;stroke-width:0.0685714"
     d="m 28.569211,31.566499 c 0.16021,-0.48563 0.160096,-0.487908 -0.02635,-0.52382 -0.08486,-0.01634 1.334572,-0.03392 3.154286,-0.03906 l 3.308571,-0.0093 v 0.48 0.48 h -3.282217 -3.282218 z"
     id="path2828" />
  <path
     style="fill:#49a9d6;fill-opacity:1;stroke-width:0.0685714"
     d="m 20.756447,34.920566 c -0.480101,-0.02715 -0.457344,0.02355 -0.254195,-0.56628 l 0.08266,-0.24 1.433257,-0.04182 c 0.788292,-0.023 3.122686,-0.04614 5.187543,-0.05143 L 30.96,34.011429 v 0.48 0.48 l -4.885714,-0.01321 c -2.687143,-0.0073 -5.080171,-0.02421 -5.317839,-0.03765 z"
     id="path2830" />
  <path
     style="fill:#49a9d6;fill-opacity:1;stroke-width:0.0685714"
     d="m 15.051429,34.491429 v -0.48 l 3.411428,0.01435 c 1.876286,0.0079 3.11629,0.02437 2.755565,0.03662 l -0.655863,0.02226 -0.115904,0.323384 c -0.145374,0.405607 -0.144713,0.477052 0.0048,0.516117 0.066,0.01725 -1.122,0.03494 -2.64,0.03931 l -2.76,0.008 z"
     id="path2832" />
</svg>
